<svg width="1399" height="1399" viewBox="0 0 1399 1399" fill="none" xmlns="http://www.w3.org/2000/svg">
<path d="M279 280H1119V1119H279V280Z" fill="#D9D9D9"/>
<path d="M140 139H560V372H140V139Z" fill="#D9D9D9"/>
<path d="M140 139H279V559H140V139Z" fill="#D9D9D9"/>
<path d="M0 419H280V979H0V419Z" fill="#D9D9D9"/>
<path d="M980 979H1260V1259H980V979Z" fill="#D9D9D9"/>
<path d="M1119 420H1399V979H1119V420Z" fill="#D9D9D9"/>
<path d="M839 140H1260V420H839V140Z" fill="#D9D9D9"/>
<path d="M420 1119H980V1399H420V1119Z" fill="#D9D9D9"/>
<path d="M420 0H980V280H420V0Z" fill="#D9D9D9"/>
<path d="M140 979H420V1259H140V979Z" fill="#D9D9D9"/>
</svg>
