<svg width="1397" height="1397" viewBox="0 0 1397 1397" fill="none" xmlns="http://www.w3.org/2000/svg">
<path d="M0 32C0 14.3269 14.3269 0 32 0H128C145.673 0 160 14.3269 160 32V128C160 145.673 145.673 160 128 160H32C14.3269 160 0 145.673 0 128V32Z" fill="#D9D9D9"/>
<path d="M240 32C240 14.3269 254.327 0 272 0H1365C1382.67 0 1397 14.3269 1397 32V1008C1397 1025.67 1382.67 1040 1365 1040H272C254.327 1040 240 1025.67 240 1008V32Z" fill="#D9D9D9"/>
<path d="M1120 1152C1120 1134.33 1134.33 1120 1152 1120H1365C1382.67 1120 1397 1134.33 1397 1152V1365C1397 1382.67 1382.67 1397 1365 1397H1152C1134.33 1397 1120 1382.67 1120 1365V1152Z" fill="#D9D9D9"/>
<path d="M0 272C0 254.327 14.3269 240 32 240H1008C1025.67 240 1040 254.327 1040 272V1365C1040 1382.67 1025.67 1397 1008 1397H32C14.3269 1397 0 1382.67 0 1365V272Z" fill="#D9D9D9"/>
<path d="M1039 1069C1043.47 1048.37 1051.61 1042.31 1070 1039H1039V1069Z" fill="#D9D9D9"/>
<path d="M241 211C236.533 231.63 228.39 237.686 210 241H241V211Z" fill="#D9D9D9"/>
</svg>
