<svg width="1397" height="1397" viewBox="0 0 1397 1397" fill="none" xmlns="http://www.w3.org/2000/svg">
<path d="M0 64C0 28.6538 28.6538 0 64 0H236C271.346 0 300 28.6538 300 64V236C300 271.346 271.346 300 236 300H64C28.6538 300 0 271.346 0 236V64Z" fill="#D9D9D9"/>
<path d="M400 264C400 228.654 428.654 200 464 200H1333C1368.35 200 1397 228.654 1397 264V936C1397 971.346 1368.35 1000 1333 1000H464C428.654 1000 400 971.346 400 936V264Z" fill="#D9D9D9"/>
<path d="M400 64C400 28.6538 428.654 0 464 0H1136C1171.35 0 1200 28.6538 1200 64V936C1200 971.346 1171.35 1000 1136 1000H464C428.654 1000 400 971.346 400 936V64Z" fill="#D9D9D9"/>
<path d="M1100 1171C1100 1135.65 1128.65 1107 1164 1107H1333C1368.35 1107 1397 1135.65 1397 1171V1333C1397 1368.35 1368.35 1397 1333 1397H1164C1128.65 1397 1100 1368.35 1100 1333V1171Z" fill="#D9D9D9"/>
<path d="M0 464C0 428.654 28.6538 400 64 400H936C971.346 400 1000 428.654 1000 464V1333C1000 1368.35 971.346 1397 936 1397H64C28.6538 1397 0 1368.35 0 1333V464Z" fill="#D9D9D9"/>
<path d="M402 338C395.179 382.306 379.893 395.298 338 402H402V338Z" fill="#D9D9D9"/>
<path d="M998 1062C1004.82 1017.69 1020.11 1004.7 1062 998H998V1062Z" fill="#D9D9D9"/>
<path d="M1262 202C1217.69 195.179 1204.7 179.893 1198 138V202H1262Z" fill="#D9D9D9"/>
<path d="M1300 48.5C1300 21.7142 1321.71 0 1348.5 0C1375.29 0 1397 21.7142 1397 48.5V51.5C1397 78.2858 1375.29 100 1348.5 100C1321.71 100 1300 78.2858 1300 51.5V48.5Z" fill="#D9D9D9"/>
</svg>
